<?xml version="1.0" encoding="UTF-8"?> <svg xmlns="http://www.w3.org/2000/svg" width="316" height="103" viewBox="0 0 316 103" fill="none"> <path d="M77.2252 34.7147H83.6762L97.1467 66.7593H100.752L86.4273 32.6166L100.183 1.59476e-05H96.6725L83.4865 31.4722H77.2252L77.2252 1.59476e-05H74L74 66.7593H77.2252V34.7147ZM111.282 1.59476e-05L105.021 66.7593H108.436L110.333 45.492L125.986 45.492L127.883 66.7593H131.298L125.037 1.59476e-05H111.282ZM110.713 42.2489L114.128 3.24237H122.191L125.701 42.2489L110.713 42.2489ZM141.544 66.7593H179.3V1.59476e-05H176.074V63.5169L162.034 63.5169V1.59476e-05H158.809V63.5169H144.769V1.59476e-05H141.544V66.7593ZM195.806 1.59476e-05L189.545 66.7593H192.96L194.857 45.492H210.51L212.408 66.7593H215.823L209.562 1.59476e-05H195.806ZM195.237 42.2489L198.652 3.24237H206.715L210.226 42.2489H195.237ZM229.388 1.59476e-05L223.507 63.5169H218.384V66.7593H226.258L232.329 3.24237H242.764V66.7593H245.99V1.59476e-05H229.388ZM259.271 1.59476e-05V66.7593H283.367V1.59476e-05H259.271ZM262.496 3.24237H280.141V63.5169H262.496V3.24237ZM290.956 1.59476e-05V3.24237H301.865V66.7593H305.091V3.24237H316V1.59476e-05H290.956Z" fill="#2C4384"></path> <path fill-rule="evenodd" clip-rule="evenodd" d="M51.8419 33.1506C52.7255 23.9256 49.8011 11.7118 45.6663 3.50364L43.9077 0.159807C42.734 -0.0311682 19.3801 0.0976407 17.023 0.0976407C15.0542 0.0976407 9.63869 -0.164487 8.0687 0.170272C3.04376 8.69575 -0.560374 22.9748 0.0720141 32.9269C0.945025 46.6776 12.2198 58.926 25.7355 59.1272C38.6859 59.3192 50.3928 48.2786 51.8419 33.1506ZM25.8494 56.6318C37.1196 56.6318 46.0697 48.0318 48.8788 37.2564C51.2409 28.1992 47.8637 10.3809 42.4771 2.40308C37.4079 2.51478 31.5985 2.41666 26.4891 2.41666L9.4947 2.42184C8.92055 3.27741 8.24684 4.94179 7.77178 5.99071C3.79914 14.7644 0.835203 27.7707 2.99853 37.2161C5.48611 48.072 15.0427 56.6311 25.8494 56.6311" fill="#2B2B2A"></path> <path fill-rule="evenodd" clip-rule="evenodd" d="M26.1919 42.5644C26.1666 42.5678 26.1418 42.5695 26.116 42.5712C26.0904 42.5697 26.0651 42.5678 26.0398 42.5644V42.5712C25.6949 42.5678 25.3483 42.4235 25.0383 42.1147C24.5178 41.5956 24.1132 40.7395 23.6887 39.9561C22.3113 37.4154 20.9682 35.8578 18.4021 34.8577C15.4323 33.6998 11.7013 34.3096 8.33101 31.8365C6.86434 30.7601 6.0486 29.7068 5.01323 28.2155C4.57544 27.5849 4.28249 27.5443 4.09498 27.8188C3.87746 31.1262 4.01955 34.3535 4.66692 37.1958C5.78971 42.1228 8.69208 46.7503 11.992 49.6785C12.4025 50.0428 12.8739 50.4289 13.289 50.8182C13.5815 51.0919 13.5782 51.1555 13.9309 51.3914C15.2488 52.2714 16.4806 52.9343 17.9087 53.5807C20.278 54.6539 22.9637 55.3148 25.8719 55.3148C36.3305 55.3148 44.6362 47.2894 47.2434 37.233C47.9832 34.3801 48.1188 30.9979 47.9133 27.6601C47.7384 27.6364 47.5109 27.7947 47.2186 28.2155C46.1835 29.7068 45.3678 30.7601 43.9006 31.8365C40.5303 34.3096 36.7994 33.6998 33.83 34.8577C31.2639 35.8578 29.9209 37.4154 28.5434 39.9561C28.1184 40.7395 27.7139 41.5956 27.1934 42.1147C26.8839 42.4235 26.5367 42.5673 26.1919 42.5712V42.5644Z" fill="#2C4384"></path> <path fill-rule="evenodd" clip-rule="evenodd" d="M41 100.06V103H27.3772H24.6235H11V100.06L24.6235 96.0467L24.6235 59.1296H27.3772L27.3772 96.0467L41 100.06Z" fill="#2B2B2A"></path> <path d="M84.6593 97.0225C84.1638 98.2462 83.7061 99.248 83.2863 100.027C82.8665 100.802 82.4356 101.408 81.9937 101.841C81.5524 102.275 81.0731 102.573 80.5567 102.73C80.0395 102.886 79.4469 102.968 78.7743 102.968C78.5426 102.968 78.3109 102.951 78.0744 102.919C77.837 102.886 77.611 102.843 77.4014 102.784C77.1912 102.73 77.0083 102.659 76.8413 102.589C76.68 102.513 76.5613 102.448 76.4913 102.388C76.4157 102.334 76.3621 102.269 76.3248 102.199C76.287 102.134 76.2544 102.042 76.2275 101.939C76.2007 101.831 76.1845 101.701 76.174 101.543C76.1622 101.386 76.1571 101.192 76.1571 100.975C76.1571 100.569 76.195 100.282 76.2759 100.103C76.3567 99.9197 76.4751 99.8324 76.6312 99.8324C76.7178 99.8324 76.8144 99.8651 76.9221 99.9244C77.0351 99.9898 77.1697 100.065 77.3258 100.147C77.4818 100.234 77.6757 100.309 77.9022 100.369C78.1281 100.434 78.3919 100.467 78.6988 100.467C78.9624 100.467 79.2048 100.439 79.4312 100.38C79.6572 100.32 79.8725 100.195 80.077 100.006C80.2819 99.8166 80.4967 99.5461 80.7179 99.2047C80.9387 98.8581 81.1808 98.3926 81.4394 97.7966L74.1709 83.14C74.0738 82.9291 74.0203 82.7558 74.0039 82.6205C73.987 82.4795 74.0255 82.3765 74.1168 82.3009C74.203 82.2253 74.3486 82.1763 74.5477 82.1493C74.7522 82.1224 75.0106 82.1116 75.3391 82.1116C75.6459 82.1116 75.8881 82.1219 76.071 82.144C76.2596 82.1652 76.4052 82.1979 76.5239 82.2465C76.6369 82.2951 76.7335 82.3552 76.7982 82.4362C76.8681 82.517 76.9274 82.6205 76.9811 82.7448L80.6208 90.2331C81.0353 91.0663 81.4178 91.8737 81.7841 92.6478C82.1445 93.4272 82.4998 94.2018 82.8445 94.976H82.8933C83.1786 94.1692 83.4692 93.3681 83.7708 92.5717C84.0665 91.7703 84.406 90.899 84.7885 89.9462L87.6421 82.6205C87.6742 82.5228 87.7173 82.4472 87.7762 82.3822C87.8302 82.3173 87.9165 82.2629 88.0241 82.2254C88.1371 82.1815 88.2879 82.1492 88.4818 82.1329C88.6757 82.1176 88.9232 82.1116 89.2249 82.1116C89.5422 82.1116 89.7901 82.127 89.9787 82.1603C90.1669 82.1925 90.3072 82.2359 90.3876 82.3009C90.4737 82.366 90.5168 82.4472 90.5168 82.5551C90.5168 82.6638 90.4849 82.7882 90.4202 82.9346L84.6593 97.0225ZM107.639 99.8488C107.639 100.017 107.634 100.163 107.622 100.293C107.612 100.417 107.595 100.526 107.568 100.623C107.541 100.715 107.509 100.802 107.466 100.878C107.423 100.948 107.348 101.04 107.246 101.143C107.138 101.251 106.917 101.413 106.584 101.63C106.244 101.847 105.824 102.058 105.323 102.264C104.823 102.47 104.252 102.642 103.606 102.784C102.954 102.93 102.249 103 101.479 103C100.154 103 98.9536 102.778 97.8875 102.334C96.8215 101.89 95.9062 101.235 95.1578 100.363C94.4045 99.4969 93.8228 98.4248 93.4187 97.1524C93.0151 95.8748 92.8107 94.4075 92.8107 92.7451C92.8107 91.0399 93.0315 89.5235 93.4675 88.1867C93.9037 86.8541 94.5175 85.7228 95.3087 84.7971C96.1001 83.8708 97.0426 83.167 98.1461 82.6798C99.2443 82.1925 100.467 81.949 101.802 81.949C102.394 81.949 102.97 82.0029 103.525 82.1116C104.085 82.2253 104.602 82.3602 105.076 82.5281C105.549 82.6961 105.969 82.891 106.341 83.113C106.707 83.3297 106.966 83.5136 107.105 83.6546C107.251 83.7952 107.342 83.9035 107.385 83.9791C107.428 84.0498 107.461 84.1361 107.488 84.2395C107.515 84.3421 107.536 84.4609 107.552 84.5968C107.568 84.7373 107.574 84.9 107.574 85.0892C107.574 85.3059 107.564 85.4846 107.541 85.6308C107.52 85.7824 107.488 85.9067 107.445 86.0096C107.407 86.107 107.353 86.183 107.294 86.2316C107.24 86.2807 107.165 86.302 107.084 86.302C106.933 86.302 106.729 86.1994 106.46 85.9934C106.196 85.7879 105.856 85.5601 105.436 85.3111C105.017 85.0623 104.511 84.835 103.913 84.629C103.31 84.4234 102.593 84.3209 101.759 84.3209C100.844 84.3209 100.015 84.5043 99.2715 84.8674C98.5228 85.2355 97.8823 85.7719 97.3548 86.481C96.8272 87.1902 96.4126 88.0566 96.1215 89.0796C95.831 90.103 95.6854 91.2725 95.6854 92.5829C95.6854 93.8879 95.8258 95.0409 96.1058 96.0428C96.3853 97.0441 96.7894 97.8837 97.3116 98.5547C97.8339 99.2264 98.4803 99.7352 99.2391 100.082C100.004 100.423 100.865 100.596 101.829 100.596C102.642 100.596 103.358 100.493 103.967 100.293C104.575 100.092 105.092 99.8704 105.517 99.6216C105.948 99.3723 106.298 99.1509 106.573 98.9501C106.853 98.7497 107.068 98.6473 107.224 98.6473C107.299 98.6473 107.364 98.6626 107.418 98.6953C107.472 98.7281 107.509 98.7877 107.541 98.8745C107.574 98.9663 107.601 99.0905 107.617 99.2479C107.632 99.4049 107.639 99.6053 107.639 99.8488H107.639ZM125.288 83.3783C125.288 83.5791 125.278 83.7519 125.256 83.8983C125.234 84.0445 125.202 84.1634 125.153 84.2555C125.105 84.3421 125.051 84.4124 124.981 84.4504C124.911 84.4938 124.835 84.5154 124.755 84.5154H119.021V102.329C119.021 102.415 118.999 102.486 118.956 102.551C118.913 102.616 118.843 102.665 118.735 102.703C118.633 102.74 118.493 102.773 118.321 102.8C118.143 102.827 117.928 102.837 117.664 102.837C117.411 102.837 117.195 102.827 117.017 102.8C116.84 102.773 116.695 102.74 116.592 102.703C116.485 102.665 116.415 102.616 116.372 102.551C116.329 102.486 116.307 102.415 116.307 102.329V84.5154H110.573C110.492 84.5154 110.417 84.4938 110.347 84.4504C110.277 84.4124 110.223 84.3421 110.18 84.2555C110.143 84.1634 110.105 84.0445 110.078 83.8983C110.051 83.7519 110.04 83.5791 110.04 83.3783C110.04 83.1781 110.05 82.9994 110.078 82.8477C110.105 82.696 110.143 82.5714 110.18 82.4795C110.223 82.3822 110.277 82.3119 110.347 82.2739C110.417 82.2306 110.492 82.209 110.573 82.209H124.755C124.835 82.209 124.911 82.2306 124.981 82.2739C125.051 82.3119 125.105 82.3822 125.153 82.4795C125.202 82.5714 125.234 82.696 125.256 82.8477C125.277 82.9994 125.288 83.1781 125.288 83.3783V83.3783ZM142.033 88.2243C142.033 89.2529 141.865 90.1791 141.526 91.0072C141.192 91.8304 140.713 92.5342 140.084 93.1186C139.459 93.6983 138.694 94.1475 137.784 94.4671C136.874 94.7869 135.792 94.9438 134.527 94.9438H132.212V102.329C132.212 102.415 132.19 102.491 132.142 102.551C132.093 102.616 132.018 102.665 131.921 102.703C131.819 102.74 131.684 102.773 131.512 102.8C131.334 102.827 131.119 102.837 130.855 102.837C130.591 102.837 130.376 102.827 130.198 102.8C130.026 102.773 129.885 102.74 129.783 102.703C129.676 102.665 129.606 102.616 129.563 102.551C129.52 102.491 129.498 102.415 129.498 102.329V83.384C129.498 82.9613 129.611 82.658 129.832 82.4795C130.053 82.3009 130.295 82.209 130.57 82.209H134.936C135.378 82.209 135.803 82.226 136.207 82.2629C136.61 82.3009 137.09 82.3822 137.639 82.5011C138.194 82.6259 138.754 82.8532 139.33 83.1833C139.9 83.5189 140.385 83.931 140.789 84.4182C141.187 84.9055 141.494 85.4681 141.709 86.107C141.925 86.7462 142.033 87.4554 142.033 88.2243V88.2243ZM139.19 88.4408C139.19 87.6017 139.034 86.9032 138.726 86.34C138.414 85.7824 138.032 85.3599 137.569 85.0839C137.112 84.8128 136.638 84.6349 136.153 84.5641C135.663 84.488 135.184 84.4504 134.721 84.4504H132.212V92.7018H134.661C135.48 92.7018 136.164 92.5935 136.702 92.3826C137.246 92.1713 137.698 91.8791 138.07 91.4998C138.436 91.1262 138.716 90.677 138.905 90.1519C139.093 89.6266 139.19 89.058 139.19 88.4408ZM162.762 102.345C162.762 102.432 162.74 102.502 162.697 102.562C162.654 102.616 162.584 102.67 162.476 102.713C162.368 102.751 162.228 102.784 162.056 102.805C161.878 102.827 161.663 102.837 161.399 102.837C161.141 102.837 160.925 102.827 160.748 102.805C160.565 102.784 160.424 102.751 160.328 102.713C160.225 102.67 160.155 102.616 160.112 102.562C160.069 102.502 160.048 102.432 160.048 102.345V88.874C160.048 88.5433 160.053 88.2025 160.065 87.8506C160.075 87.4934 160.091 87.1736 160.113 86.8868H160.081C159.995 87.0384 159.903 87.1954 159.806 87.3634C159.704 87.531 159.596 87.7095 159.483 87.8939C159.365 88.0836 159.252 88.2676 159.133 88.4515C159.02 88.6358 158.902 88.8197 158.789 88.9984L149.958 102.361C149.894 102.448 149.83 102.518 149.77 102.583C149.706 102.648 149.625 102.697 149.523 102.735C149.426 102.773 149.307 102.8 149.167 102.816C149.033 102.832 148.86 102.837 148.651 102.837C148.408 102.837 148.209 102.827 148.058 102.805C147.902 102.784 147.783 102.751 147.692 102.703C147.605 102.653 147.541 102.599 147.503 102.535C147.466 102.475 147.449 102.394 147.449 102.296V82.6042C147.449 82.5281 147.471 82.4578 147.52 82.3981C147.568 82.3331 147.649 82.2793 147.757 82.2358C147.87 82.1979 148.009 82.1652 148.182 82.144C148.354 82.1224 148.564 82.1116 148.807 82.1116C149.07 82.1116 149.286 82.1219 149.463 82.144C149.636 82.1652 149.775 82.1979 149.878 82.2358C149.986 82.2793 150.056 82.3331 150.099 82.3981C150.142 82.4578 150.163 82.5281 150.163 82.6042V96.1564C150.163 96.4434 150.163 96.7465 150.158 97.0769C150.153 97.4072 150.131 97.721 150.099 98.0296H150.131C150.298 97.7643 150.497 97.4447 150.724 97.0716C150.95 96.6922 151.186 96.3185 151.44 95.9503L160.253 82.5715C160.307 82.4959 160.366 82.431 160.425 82.3712C160.49 82.3174 160.571 82.2686 160.673 82.2305C160.776 82.1925 160.894 82.1652 161.029 82.144C161.169 82.1224 161.341 82.1116 161.556 82.1116C161.799 82.1116 161.998 82.1219 162.149 82.144C162.305 82.1652 162.429 82.1979 162.514 82.2465C162.606 82.2951 162.67 82.3442 162.708 82.4034C162.746 82.4636 162.762 82.5391 162.762 82.6365V102.345H162.762ZM181.972 102.345C181.972 102.421 181.95 102.491 181.907 102.551C181.864 102.616 181.794 102.665 181.692 102.703C181.595 102.74 181.461 102.773 181.288 102.8C181.121 102.827 180.906 102.837 180.637 102.837C180.395 102.837 180.184 102.827 180.007 102.8C179.824 102.773 179.679 102.74 179.565 102.703C179.458 102.665 179.377 102.616 179.329 102.551C179.28 102.491 179.259 102.421 179.259 102.345V94.4778C178.65 94.5426 178.053 94.5971 177.476 94.6457C176.9 94.6943 176.308 94.7161 175.71 94.7161C174.698 94.7161 173.761 94.6347 172.889 94.4725C172.017 94.3043 171.258 93.9958 170.617 93.536C169.976 93.0753 169.47 92.4365 169.109 91.6191C168.748 90.807 168.566 89.746 168.566 88.4461V82.6042C168.566 82.5281 168.587 82.4635 168.63 82.3981C168.673 82.3331 168.743 82.2845 168.846 82.2465C168.942 82.209 169.083 82.1763 169.255 82.1493C169.432 82.1224 169.643 82.1116 169.901 82.1116C170.164 82.1116 170.38 82.1219 170.547 82.1493C170.719 82.1763 170.859 82.209 170.977 82.2465C171.096 82.2845 171.171 82.3331 171.215 82.3981C171.258 82.4578 171.279 82.5281 171.279 82.6042V88.2516C171.279 88.8848 171.349 89.4585 171.484 89.9674C171.618 90.4714 171.861 90.9042 172.211 91.2671C172.555 91.6244 173.029 91.9007 173.627 92.0899C174.225 92.2796 174.989 92.3773 175.92 92.3773C176.502 92.3773 177.062 92.3552 177.616 92.3123C178.166 92.269 178.715 92.2257 179.259 92.1713V82.6042C179.259 82.5281 179.28 82.4578 179.329 82.3981C179.377 82.3331 179.458 82.2845 179.565 82.2465C179.679 82.209 179.824 82.1763 180.007 82.1493C180.184 82.1224 180.395 82.1116 180.637 82.1116C180.906 82.1116 181.121 82.1219 181.288 82.1493C181.461 82.1763 181.595 82.209 181.692 82.2465C181.794 82.2845 181.864 82.3331 181.907 82.3981C181.95 82.4578 181.972 82.5281 181.972 82.6042V102.345ZM203.347 102.328C203.347 102.415 203.325 102.491 203.283 102.55C203.239 102.615 203.169 102.664 203.062 102.702C202.955 102.74 202.814 102.772 202.642 102.799C202.464 102.826 202.255 102.837 202.001 102.837C201.721 102.837 201.501 102.826 201.333 102.799C201.161 102.772 201.027 102.74 200.919 102.702C200.811 102.664 200.741 102.615 200.698 102.55C200.655 102.491 200.634 102.415 200.634 102.328V93.221H191.362V102.328C191.362 102.415 191.34 102.491 191.298 102.55C191.255 102.615 191.184 102.664 191.077 102.702C190.975 102.74 190.834 102.772 190.662 102.799C190.484 102.826 190.269 102.837 190.005 102.837C189.752 102.837 189.537 102.826 189.359 102.799C189.182 102.772 189.036 102.74 188.934 102.702C188.826 102.664 188.756 102.615 188.713 102.55C188.67 102.491 188.648 102.415 188.648 102.328V82.6199C188.648 82.5327 188.67 82.4571 188.713 82.3975C188.756 82.3325 188.826 82.2839 188.934 82.2459C189.036 82.2083 189.182 82.1755 189.359 82.1485C189.537 82.1217 189.752 82.111 190.005 82.111C190.269 82.111 190.484 82.1212 190.662 82.1485C190.834 82.1755 190.975 82.2083 191.077 82.2459C191.184 82.2839 191.255 82.3325 191.298 82.3975C191.34 82.4629 191.362 82.5327 191.362 82.6199V90.8497H200.634V82.6199C200.634 82.5327 200.655 82.4629 200.698 82.3975C200.741 82.3325 200.811 82.2839 200.919 82.2459C201.027 82.2083 201.161 82.1755 201.333 82.1485C201.501 82.1217 201.721 82.111 202.001 82.111C202.255 82.111 202.464 82.1212 202.642 82.1485C202.814 82.1755 202.955 82.2083 203.062 82.2459C203.169 82.2839 203.239 82.3325 203.283 82.3975C203.325 82.4571 203.347 82.5327 203.347 82.6199V102.328ZM229.229 102.345C229.229 102.432 229.207 102.502 229.164 102.562C229.121 102.616 229.051 102.67 228.944 102.713C228.841 102.751 228.696 102.784 228.519 102.805C228.341 102.827 228.125 102.837 227.872 102.837C227.609 102.837 227.393 102.827 227.226 102.805C227.059 102.784 226.919 102.751 226.806 102.713C226.698 102.67 226.623 102.616 226.58 102.562C226.537 102.502 226.516 102.432 226.516 102.345V82.6042C226.516 82.5281 226.537 82.4578 226.585 82.3981C226.634 82.3331 226.715 82.2793 226.822 82.2358C226.935 82.1979 227.075 82.1652 227.247 82.144C227.42 82.1224 227.63 82.1116 227.872 82.1116C228.125 82.1116 228.341 82.1219 228.519 82.144C228.696 82.1652 228.841 82.1979 228.944 82.2358C229.051 82.2793 229.121 82.3331 229.164 82.3981C229.207 82.4578 229.229 82.5281 229.229 82.6042V102.345ZM223.349 96.3456C223.349 97.1905 223.215 97.9866 222.946 98.7334C222.677 99.4805 222.256 100.147 221.675 100.742C221.099 101.333 220.323 101.814 219.365 102.183C218.401 102.556 217.066 102.74 215.36 102.74H211.1C210.971 102.74 210.848 102.723 210.718 102.686C210.594 102.648 210.481 102.583 210.39 102.497C210.293 102.405 210.212 102.285 210.142 102.145C210.072 102.004 210.04 101.831 210.04 101.63V82.6042C210.04 82.5281 210.062 82.4578 210.11 82.3981C210.159 82.3331 210.239 82.2793 210.347 82.2358C210.46 82.1979 210.6 82.1652 210.772 82.144C210.944 82.1224 211.154 82.1116 211.397 82.1116C211.66 82.1116 211.876 82.1219 212.054 82.144C212.226 82.1652 212.366 82.1979 212.468 82.2358C212.576 82.2793 212.646 82.3331 212.689 82.3981C212.732 82.4578 212.753 82.5281 212.753 82.6042V90.3626H215.58C217.045 90.3626 218.213 90.4872 219.096 90.7367C219.974 90.9855 220.722 91.3592 221.347 91.8627C221.966 92.3663 222.456 92.9939 222.811 93.7412C223.172 94.494 223.349 95.3602 223.349 96.3456V96.3456ZM220.539 96.6007C220.539 95.9667 220.442 95.4035 220.254 94.9162C220.065 94.4348 219.78 94.0176 219.392 93.6767C219.01 93.3301 218.525 93.0648 217.944 92.8803C217.357 92.6966 216.49 92.6045 215.343 92.6045H212.753V100.499H215.532C216.754 100.499 217.669 100.374 218.272 100.119C218.881 99.8651 219.343 99.5461 219.661 99.1614C219.984 98.7715 220.21 98.3487 220.34 97.889C220.474 97.4288 220.539 97.0008 220.539 96.6007V96.6007ZM251.223 102.345C251.223 102.432 251.202 102.502 251.159 102.562C251.116 102.616 251.046 102.67 250.938 102.713C250.83 102.751 250.69 102.784 250.518 102.805C250.34 102.827 250.125 102.837 249.861 102.837C249.603 102.837 249.387 102.827 249.209 102.805C249.026 102.784 248.886 102.751 248.79 102.713C248.688 102.67 248.617 102.616 248.574 102.562C248.532 102.502 248.51 102.432 248.51 102.345V88.874C248.51 88.5433 248.515 88.2025 248.525 87.8506C248.535 87.4934 248.552 87.1736 248.573 86.8868H248.541C248.455 87.0384 248.364 87.1954 248.267 87.3634C248.165 87.531 248.056 87.7095 247.943 87.8939C247.825 88.0836 247.712 88.2676 247.594 88.4515C247.481 88.6358 247.362 88.8197 247.249 88.9984L238.419 102.361C238.354 102.448 238.29 102.518 238.231 102.583C238.166 102.648 238.085 102.697 237.983 102.735C237.886 102.773 237.767 102.8 237.627 102.816C237.493 102.832 237.321 102.837 237.11 102.837C236.868 102.837 236.669 102.827 236.518 102.805C236.362 102.784 236.244 102.751 236.152 102.703C236.066 102.653 236.001 102.599 235.964 102.535C235.926 102.475 235.91 102.394 235.91 102.296V82.6042C235.91 82.5281 235.931 82.4578 235.98 82.3981C236.029 82.3331 236.109 82.2793 236.217 82.2358C236.33 82.1979 236.47 82.1652 236.642 82.144C236.815 82.1224 237.025 82.1116 237.267 82.1116C237.531 82.1116 237.746 82.1219 237.923 82.144C238.096 82.1652 238.236 82.1979 238.338 82.2358C238.446 82.2793 238.516 82.3331 238.559 82.3981C238.602 82.4578 238.624 82.5281 238.624 82.6042V96.1564C238.624 96.4434 238.624 96.7465 238.619 97.0769C238.614 97.4072 238.591 97.721 238.559 98.0296H238.591C238.758 97.7643 238.958 97.4447 239.184 97.0716C239.41 96.6922 239.647 96.3185 239.9 95.9503L248.714 82.5715C248.767 82.4959 248.827 82.431 248.886 82.3712C248.95 82.3174 249.031 82.2686 249.134 82.2305C249.236 82.1925 249.354 82.1652 249.489 82.144C249.629 82.1224 249.801 82.1116 250.016 82.1116C250.259 82.1116 250.458 82.1219 250.609 82.144C250.765 82.1652 250.889 82.1979 250.975 82.2465C251.066 82.2951 251.131 82.3442 251.169 82.4034C251.207 82.4636 251.223 82.5391 251.223 82.6365V102.345H251.223ZM248.574 76.8647C248.574 77.4058 248.483 77.9259 248.305 78.4189C248.127 78.917 247.842 79.3557 247.454 79.7288C247.067 80.1027 246.566 80.4055 245.952 80.6333C245.344 80.8605 244.601 80.9741 243.729 80.9741C242.926 80.9741 242.226 80.8769 241.624 80.6819C241.015 80.4869 240.509 80.2053 240.105 79.8424C239.701 79.4745 239.395 79.0413 239.19 78.5378C238.985 78.0395 238.883 77.4819 238.883 76.8647C238.883 76.7618 238.898 76.6698 238.936 76.5995C238.974 76.5236 239.045 76.4638 239.147 76.421C239.243 76.383 239.378 76.3502 239.54 76.3289C239.701 76.3069 239.901 76.2963 240.132 76.2963C240.385 76.2963 240.59 76.3065 240.735 76.3343C240.886 76.3612 240.999 76.4045 241.075 76.4532C241.155 76.5071 241.208 76.5779 241.236 76.6588C241.263 76.7454 241.274 76.8485 241.274 76.9626C241.274 77.2279 241.327 77.4873 241.43 77.7419C241.537 77.9966 241.699 78.2185 241.914 78.4135C242.13 78.6084 242.388 78.7655 242.695 78.8844C243.002 78.998 243.352 79.0576 243.75 79.0576C244.143 79.0576 244.488 78.998 244.783 78.8844C245.085 78.7655 245.344 78.6084 245.553 78.4135C245.764 78.2185 245.92 77.9909 246.028 77.7309C246.13 77.4714 246.184 77.195 246.184 76.897C246.184 76.8056 246.194 76.7185 246.222 76.6375C246.248 76.5562 246.302 76.4965 246.383 76.4479C246.458 76.3992 246.572 76.3612 246.711 76.3343C246.851 76.3068 247.045 76.2963 247.282 76.2963C247.535 76.2963 247.745 76.3065 247.907 76.3289C248.068 76.3502 248.197 76.383 248.3 76.421C248.397 76.4638 248.472 76.5236 248.51 76.5995C248.553 76.6698 248.574 76.7618 248.574 76.8647V76.8647ZM278.639 96.6384C278.639 97.4288 278.516 98.1918 278.268 98.9284C278.02 99.6649 277.621 100.309 277.067 100.872C276.518 101.43 275.786 101.879 274.871 102.226C273.955 102.567 272.712 102.74 271.134 102.74H266.213C265.96 102.74 265.728 102.659 265.518 102.497C265.308 102.329 265.2 102.036 265.2 101.614V83.3187C265.2 82.9071 265.308 82.6205 265.518 82.4526C265.728 82.2899 265.954 82.209 266.197 82.209H276.782C276.873 82.209 276.959 82.2306 277.029 82.2739C277.105 82.3173 277.164 82.3822 277.213 82.4795C277.261 82.5772 277.293 82.6961 277.315 82.8372C277.337 82.9779 277.347 83.1563 277.347 83.3678C277.347 83.5627 277.337 83.7302 277.315 83.8766C277.293 84.0283 277.261 84.1471 277.213 84.2395C277.164 84.3258 277.11 84.3964 277.04 84.4452C276.97 84.4937 276.89 84.5154 276.798 84.5154H267.914V90.9475H271.646C272.927 90.9475 273.982 91.0776 274.811 91.3427C275.64 91.608 276.34 91.9874 276.906 92.4852C277.476 92.9835 277.907 93.5788 278.198 94.2828C278.494 94.9871 278.639 95.7717 278.639 96.6384V96.6384ZM275.829 96.8279C275.829 96.2537 275.737 95.7394 275.554 95.2846C275.371 94.8297 275.107 94.4455 274.757 94.1259C274.413 93.8066 273.971 93.5631 273.438 93.3839C272.9 93.2112 272.195 93.1245 271.311 93.1245H267.914V100.531H271.392C272.232 100.531 272.916 100.444 273.455 100.276C273.987 100.109 274.423 99.8599 274.768 99.5403C275.107 99.2152 275.371 98.8253 275.554 98.3708C275.737 97.916 275.829 97.4017 275.829 96.8279V96.8279ZM298.798 101.776C298.878 102.009 298.927 102.193 298.932 102.34C298.937 102.48 298.895 102.589 298.814 102.665C298.728 102.735 298.588 102.784 298.394 102.805C298.2 102.827 297.942 102.837 297.613 102.837C297.29 102.837 297.026 102.832 296.832 102.816C296.639 102.799 296.493 102.773 296.391 102.735C296.289 102.697 296.219 102.648 296.17 102.583C296.122 102.518 296.079 102.442 296.036 102.345L294.286 97.3474H285.8L284.126 102.28C284.094 102.378 284.056 102.459 284.002 102.529C283.948 102.599 283.873 102.653 283.771 102.703C283.673 102.751 283.528 102.784 283.345 102.805C283.162 102.827 282.926 102.837 282.629 102.837C282.322 102.837 282.075 102.827 281.881 102.8C281.687 102.773 281.547 102.724 281.472 102.648C281.391 102.573 281.353 102.464 281.359 102.323C281.364 102.177 281.407 101.993 281.493 101.76L288.336 82.6851C288.379 82.5662 288.439 82.4688 288.503 82.3981C288.573 82.3226 288.67 82.2629 288.805 82.2254C288.934 82.1815 289.101 82.1492 289.311 82.1329C289.515 82.1176 289.774 82.1116 290.092 82.1116C290.425 82.1116 290.705 82.1168 290.926 82.1329C291.147 82.1499 291.324 82.1815 291.459 82.2254C291.599 82.2629 291.701 82.3279 291.777 82.4034C291.852 82.4848 291.911 82.5824 291.949 82.6961L298.798 101.776ZM290.011 84.9376H289.994L286.478 95.171H293.575L290.011 84.9376H290.011ZM316 88.2243C316 89.2529 315.833 90.1791 315.494 91.0072C315.16 91.8304 314.681 92.5342 314.051 93.1186C313.426 93.6983 312.662 94.1475 311.752 94.4671C310.842 94.7869 309.76 94.9438 308.494 94.9438H306.18V102.329C306.18 102.415 306.157 102.491 306.109 102.551C306.061 102.616 305.986 102.665 305.888 102.703C305.786 102.74 305.651 102.773 305.479 102.8C305.301 102.827 305.086 102.837 304.822 102.837C304.559 102.837 304.343 102.827 304.165 102.8C303.993 102.773 303.853 102.74 303.751 102.703C303.643 102.665 303.573 102.616 303.53 102.551C303.487 102.491 303.466 102.415 303.466 102.329V83.384C303.466 82.9613 303.579 82.658 303.799 82.4795C304.02 82.3009 304.262 82.209 304.537 82.209H308.904C309.345 82.209 309.771 82.226 310.174 82.2629C310.578 82.3009 311.057 82.3822 311.607 82.5011C312.161 82.6259 312.721 82.8532 313.297 83.1833C313.868 83.5189 314.353 83.931 314.756 84.4182C315.155 84.9055 315.461 85.4681 315.677 86.107C315.892 86.7462 316 87.4554 316 88.2243V88.2243ZM313.157 88.4408C313.157 87.6017 313.001 86.9032 312.694 86.34C312.382 85.7824 312 85.3599 311.536 85.0839C311.079 84.8128 310.605 84.6349 310.121 84.5641C309.631 84.488 309.151 84.4504 308.688 84.4504H306.18V92.7018H308.629C309.447 92.7018 310.131 92.5935 310.67 92.3826C311.214 92.1713 311.666 91.8791 312.038 91.4998C312.403 91.1262 312.683 90.677 312.872 90.1519C313.06 89.6266 313.157 89.058 313.157 88.4408Z" fill="#2B2B2A"></path> </svg> 